<mxfile host="app.diagrams.net" agent="Mozilla/5.0 (Macintosh; Intel Mac OS X 10_15_7) AppleWebKit/605.1.15 (KHTML, like Gecko) Version/18.2 Safari/605.1.15" version="26.1.3" pages="2">
  <diagram id="Z7bgDDkQMDf8QLlb8JFn" name="physical">
    <mxGraphModel dx="5944" dy="3842" grid="0" gridSize="10" guides="1" tooltips="1" connect="1" arrows="1" fold="1" page="1" pageScale="1" pageWidth="2336" pageHeight="1654" math="0" shadow="0">
      <root>
        <mxCell id="0" />
        <mxCell id="1" parent="0" />
        <mxCell id="i12mlee3xps-1B7KDu0O-2" value="Private subnet" style="points=[[0,0],[0.25,0],[0.5,0],[0.75,0],[1,0],[1,0.25],[1,0.5],[1,0.75],[1,1],[0.75,1],[0.5,1],[0.25,1],[0,1],[0,0.75],[0,0.5],[0,0.25]];outlineConnect=0;gradientColor=none;html=1;whiteSpace=wrap;fontSize=12;fontStyle=0;container=1;pointerEvents=0;collapsible=0;recursiveResize=0;shape=mxgraph.aws4.group;grIcon=mxgraph.aws4.group_security_group;grStroke=0;strokeColor=#00A4A6;fillColor=#E6F6F7;verticalAlign=top;align=left;spacingLeft=30;fontColor=#147EBA;dashed=0;" vertex="1" parent="1">
          <mxGeometry x="-1951" y="-1427" width="1776" height="1238" as="geometry" />
        </mxCell>
        <mxCell id="i12mlee3xps-1B7KDu0O-1" value="AWS Cloud" style="sketch=0;outlineConnect=0;gradientColor=none;html=1;whiteSpace=wrap;fontSize=12;fontStyle=0;shape=mxgraph.aws4.group;grIcon=mxgraph.aws4.group_aws_cloud;strokeColor=#858B94;fillColor=none;verticalAlign=top;align=left;spacingLeft=30;fontColor=#858B94;dashed=0;" vertex="1" parent="1">
          <mxGeometry x="-2068" y="-1534" width="1970" height="1421" as="geometry" />
        </mxCell>
        <mxCell id="PNqLKcJpuoWZzPqMbl4y-2" value="VPC" style="sketch=0;outlineConnect=0;gradientColor=none;html=1;whiteSpace=wrap;fontSize=12;fontStyle=0;shape=mxgraph.aws4.group;grIcon=mxgraph.aws4.group_vpc;strokeColor=#B6BABF;fillColor=none;verticalAlign=top;align=left;spacingLeft=30;fontColor=#B6BABF;dashed=0;" parent="1" vertex="1">
          <mxGeometry x="-1989" y="-1488" width="1838" height="1315" as="geometry" />
        </mxCell>
        <mxCell id="FTCP2H_QkPKJNNPyXK-4-40" value="" style="rounded=1;arcSize=10;dashed=1;strokeColor=#F59D56;fillColor=none;gradientColor=none;dashPattern=8 4;strokeWidth=2;" parent="1" vertex="1">
          <mxGeometry x="-660" y="-662.5" width="126" height="122" as="geometry" />
        </mxCell>
        <mxCell id="bMrcSnrjAP0GC5gMyjKL-6" style="edgeStyle=none;curved=1;rounded=0;orthogonalLoop=1;jettySize=auto;html=1;fontSize=12;startSize=8;endSize=8;" parent="1" source="FTCP2H_QkPKJNNPyXK-4-2" target="bMrcSnrjAP0GC5gMyjKL-4" edge="1">
          <mxGeometry relative="1" as="geometry">
            <mxPoint x="-1627" y="-706.5" as="targetPoint" />
          </mxGeometry>
        </mxCell>
        <mxCell id="FTCP2H_QkPKJNNPyXK-4-2" value="code commit" style="outlineConnect=0;dashed=0;verticalLabelPosition=bottom;verticalAlign=top;align=center;html=1;shape=mxgraph.aws3.codecommit;fillColor=#fa6800;fontColor=#000000;strokeColor=#C73500;fontStyle=0" parent="1" vertex="1">
          <mxGeometry x="-1668.25" y="-672.5" width="76.5" height="93" as="geometry" />
        </mxCell>
        <mxCell id="bbQqTJrQ85McDsHy6vod-8" style="edgeStyle=none;curved=1;rounded=0;orthogonalLoop=1;jettySize=auto;html=1;exitX=1;exitY=0.25;exitDx=0;exitDy=0;fontSize=12;startSize=8;endSize=8;entryX=0.018;entryY=0.464;entryDx=0;entryDy=0;entryPerimeter=0;" parent="1" target="FTCP2H_QkPKJNNPyXK-4-43" edge="1">
          <mxGeometry relative="1" as="geometry">
            <mxPoint x="-925" y="-979.5" as="targetPoint" />
            <mxPoint x="-1087" y="-979.5" as="sourcePoint" />
          </mxGeometry>
        </mxCell>
        <mxCell id="FTCP2H_QkPKJNNPyXK-4-14" value="Auto Scaling group" style="points=[[0,0],[0.25,0],[0.5,0],[0.75,0],[1,0],[1,0.25],[1,0.5],[1,0.75],[1,1],[0.75,1],[0.5,1],[0.25,1],[0,1],[0,0.75],[0,0.5],[0,0.25]];outlineConnect=0;gradientColor=none;html=1;whiteSpace=wrap;fontSize=10;fontStyle=0;container=1;pointerEvents=0;collapsible=0;recursiveResize=0;shape=mxgraph.aws4.groupCenter;grIcon=mxgraph.aws4.group_auto_scaling_group;grStroke=1;strokeColor=#D86613;fillColor=none;verticalAlign=top;align=center;fontColor=#D86613;dashed=1;spacingTop=25;" parent="1" vertex="1">
          <mxGeometry x="-1241" y="-1030.5" width="177" height="152" as="geometry" />
        </mxCell>
        <mxCell id="bMrcSnrjAP0GC5gMyjKL-18" value="EC2 C&amp;amp;C Sensor" style="points=[[0,0],[0.25,0],[0.5,0],[0.75,0],[1,0],[1,0.25],[1,0.5],[1,0.75],[1,1],[0.75,1],[0.5,1],[0.25,1],[0,1],[0,0.75],[0,0.5],[0,0.25]];outlineConnect=0;gradientColor=none;html=1;whiteSpace=wrap;fontSize=9;fontStyle=1;container=1;pointerEvents=0;collapsible=0;recursiveResize=0;shape=mxgraph.aws4.group;grIcon=mxgraph.aws4.group_ec2_instance_contents;strokeColor=#D86613;fillColor=none;verticalAlign=top;align=left;spacingLeft=30;fontColor=#D86613;dashed=0;" parent="FTCP2H_QkPKJNNPyXK-4-14" vertex="1">
          <mxGeometry x="28" y="51" width="128" height="95" as="geometry" />
        </mxCell>
        <mxCell id="bMrcSnrjAP0GC5gMyjKL-19" value="" style="sketch=0;points=[[0,0,0],[0.25,0,0],[0.5,0,0],[0.75,0,0],[1,0,0],[0,1,0],[0.25,1,0],[0.5,1,0],[0.75,1,0],[1,1,0],[0,0.25,0],[0,0.5,0],[0,0.75,0],[1,0.25,0],[1,0.5,0],[1,0.75,0]];outlineConnect=0;fontColor=#232F3E;fillColor=#ED7100;strokeColor=#ffffff;dashed=0;verticalLabelPosition=bottom;verticalAlign=top;align=center;html=1;fontSize=12;fontStyle=0;shape=mxgraph.aws4.resourceIcon;resIcon=mxgraph.aws4.ec2;direction=south;" parent="bMrcSnrjAP0GC5gMyjKL-18" vertex="1">
          <mxGeometry x="76" y="49.5" width="34" height="24" as="geometry" />
        </mxCell>
        <mxCell id="bMrcSnrjAP0GC5gMyjKL-20" value="Container" style="sketch=0;outlineConnect=0;fontColor=#FF8000;gradientColor=none;fillColor=#ED7100;strokeColor=none;dashed=0;verticalLabelPosition=bottom;verticalAlign=top;align=center;html=1;fontSize=10;fontStyle=1;pointerEvents=1;shape=mxgraph.aws4.container_2;aspect=fixed;" parent="bMrcSnrjAP0GC5gMyjKL-18" vertex="1">
          <mxGeometry x="24" y="34" width="35.61" height="23" as="geometry" />
        </mxCell>
        <mxCell id="FTCP2H_QkPKJNNPyXK-4-26" value="Auto Scaling group" style="points=[[0,0],[0.25,0],[0.5,0],[0.75,0],[1,0],[1,0.25],[1,0.5],[1,0.75],[1,1],[0.75,1],[0.5,1],[0.25,1],[0,1],[0,0.75],[0,0.5],[0,0.25]];outlineConnect=0;gradientColor=none;html=1;whiteSpace=wrap;fontSize=10;fontStyle=0;container=1;pointerEvents=0;collapsible=0;recursiveResize=0;shape=mxgraph.aws4.groupCenter;grIcon=mxgraph.aws4.group_auto_scaling_group;grStroke=1;strokeColor=#D86613;fillColor=none;verticalAlign=top;align=center;fontColor=#D86613;dashed=1;spacingTop=25;" parent="1" vertex="1">
          <mxGeometry x="-1240" y="-861.5" width="174" height="152" as="geometry" />
        </mxCell>
        <mxCell id="FTCP2H_QkPKJNNPyXK-4-27" value="EC2 Network Forensics Sensor" style="points=[[0,0],[0.25,0],[0.5,0],[0.75,0],[1,0],[1,0.25],[1,0.5],[1,0.75],[1,1],[0.75,1],[0.5,1],[0.25,1],[0,1],[0,0.75],[0,0.5],[0,0.25]];outlineConnect=0;gradientColor=none;html=1;whiteSpace=wrap;fontSize=9;fontStyle=1;container=1;pointerEvents=0;collapsible=0;recursiveResize=0;shape=mxgraph.aws4.group;grIcon=mxgraph.aws4.group_ec2_instance_contents;strokeColor=#D86613;fillColor=none;verticalAlign=top;align=left;spacingLeft=30;fontColor=#D86613;dashed=0;" parent="FTCP2H_QkPKJNNPyXK-4-26" vertex="1">
          <mxGeometry x="21" y="51" width="136" height="89" as="geometry" />
        </mxCell>
        <mxCell id="FTCP2H_QkPKJNNPyXK-4-28" value="" style="sketch=0;points=[[0,0,0],[0.25,0,0],[0.5,0,0],[0.75,0,0],[1,0,0],[0,1,0],[0.25,1,0],[0.5,1,0],[0.75,1,0],[1,1,0],[0,0.25,0],[0,0.5,0],[0,0.75,0],[1,0.25,0],[1,0.5,0],[1,0.75,0]];outlineConnect=0;fontColor=#232F3E;fillColor=#ED7100;strokeColor=#ffffff;dashed=0;verticalLabelPosition=bottom;verticalAlign=top;align=center;html=1;fontSize=12;fontStyle=0;shape=mxgraph.aws4.resourceIcon;resIcon=mxgraph.aws4.ec2;direction=south;" parent="FTCP2H_QkPKJNNPyXK-4-27" vertex="1">
          <mxGeometry x="79.25" y="33" width="34" height="24" as="geometry" />
        </mxCell>
        <mxCell id="bIfwMA-cPKqzfyl7_uyt-10" value="Container" style="sketch=0;outlineConnect=0;fontColor=#FF8000;gradientColor=none;fillColor=#ED7100;strokeColor=none;dashed=0;verticalLabelPosition=bottom;verticalAlign=top;align=center;html=1;fontSize=10;fontStyle=1;pointerEvents=1;shape=mxgraph.aws4.container_2;aspect=fixed;" parent="FTCP2H_QkPKJNNPyXK-4-27" vertex="1">
          <mxGeometry x="27.25" y="33" width="35.61" height="23" as="geometry" />
        </mxCell>
        <mxCell id="bbQqTJrQ85McDsHy6vod-7" style="edgeStyle=none;curved=0;rounded=0;orthogonalLoop=1;jettySize=auto;html=1;exitX=1.007;exitY=0.697;exitDx=0;exitDy=0;fontSize=12;startSize=8;endSize=8;exitPerimeter=0;entryX=0.184;entryY=0.042;entryDx=0;entryDy=0;entryPerimeter=0;" parent="1" source="FTCP2H_QkPKJNNPyXK-4-30" target="FTCP2H_QkPKJNNPyXK-4-43" edge="1">
          <mxGeometry relative="1" as="geometry">
            <mxPoint x="-942" y="-1057.5" as="targetPoint" />
            <Array as="points">
              <mxPoint x="-906" y="-1101.5" />
            </Array>
          </mxGeometry>
        </mxCell>
        <mxCell id="FTCP2H_QkPKJNNPyXK-4-30" value="Auto Scaling group" style="points=[[0,0],[0.25,0],[0.5,0],[0.75,0],[1,0],[1,0.25],[1,0.5],[1,0.75],[1,1],[0.75,1],[0.5,1],[0.25,1],[0,1],[0,0.75],[0,0.5],[0,0.25]];outlineConnect=0;gradientColor=none;html=1;whiteSpace=wrap;fontSize=10;fontStyle=0;container=1;pointerEvents=0;collapsible=0;recursiveResize=0;shape=mxgraph.aws4.groupCenter;grIcon=mxgraph.aws4.group_auto_scaling_group;grStroke=1;strokeColor=#D86613;fillColor=none;verticalAlign=top;align=center;fontColor=#D86613;dashed=1;spacingTop=25;" parent="1" vertex="1">
          <mxGeometry x="-1240" y="-1209.5" width="177" height="152" as="geometry" />
        </mxCell>
        <mxCell id="FTCP2H_QkPKJNNPyXK-4-31" value="EC2 File Analysis Sensor" style="points=[[0,0],[0.25,0],[0.5,0],[0.75,0],[1,0],[1,0.25],[1,0.5],[1,0.75],[1,1],[0.75,1],[0.5,1],[0.25,1],[0,1],[0,0.75],[0,0.5],[0,0.25]];outlineConnect=0;gradientColor=none;html=1;whiteSpace=wrap;fontSize=9;fontStyle=1;container=1;pointerEvents=0;collapsible=0;recursiveResize=0;shape=mxgraph.aws4.group;grIcon=mxgraph.aws4.group_ec2_instance_contents;strokeColor=#D86613;fillColor=none;verticalAlign=top;align=left;spacingLeft=30;fontColor=#D86613;dashed=0;" parent="FTCP2H_QkPKJNNPyXK-4-30" vertex="1">
          <mxGeometry x="16" y="52" width="145" height="92" as="geometry" />
        </mxCell>
        <mxCell id="FTCP2H_QkPKJNNPyXK-4-32" value="" style="sketch=0;points=[[0,0,0],[0.25,0,0],[0.5,0,0],[0.75,0,0],[1,0,0],[0,1,0],[0.25,1,0],[0.5,1,0],[0.75,1,0],[1,1,0],[0,0.25,0],[0,0.5,0],[0,0.75,0],[1,0.25,0],[1,0.5,0],[1,0.75,0]];outlineConnect=0;fontColor=#232F3E;fillColor=#ED7100;strokeColor=#ffffff;dashed=0;verticalLabelPosition=bottom;verticalAlign=top;align=center;html=1;fontSize=12;fontStyle=0;shape=mxgraph.aws4.resourceIcon;resIcon=mxgraph.aws4.ec2;direction=south;" parent="FTCP2H_QkPKJNNPyXK-4-31" vertex="1">
          <mxGeometry x="79.25" y="33" width="34" height="24" as="geometry" />
        </mxCell>
        <mxCell id="bIfwMA-cPKqzfyl7_uyt-9" value="Container" style="sketch=0;outlineConnect=0;fontColor=#FF8000;gradientColor=none;fillColor=#ED7100;strokeColor=none;dashed=0;verticalLabelPosition=bottom;verticalAlign=top;align=center;html=1;fontSize=10;fontStyle=1;pointerEvents=1;shape=mxgraph.aws4.container_2;aspect=fixed;" parent="FTCP2H_QkPKJNNPyXK-4-31" vertex="1">
          <mxGeometry x="24" y="34" width="35.61" height="23" as="geometry" />
        </mxCell>
        <mxCell id="FTCP2H_QkPKJNNPyXK-4-36" value="" style="sketch=0;outlineConnect=0;fillColor=#fa6800;strokeColor=#C73500;dashed=0;verticalLabelPosition=bottom;verticalAlign=top;align=center;html=1;fontSize=12;fontStyle=0;aspect=fixed;pointerEvents=1;shape=mxgraph.aws4.rds_postgresql_instance;fontColor=#000000;" parent="1" vertex="1">
          <mxGeometry x="-640" y="-648.5" width="78" height="78" as="geometry" />
        </mxCell>
        <mxCell id="bbQqTJrQ85McDsHy6vod-6" style="edgeStyle=none;curved=0;rounded=0;orthogonalLoop=1;jettySize=auto;html=1;fontSize=12;startSize=8;endSize=8;" parent="1" target="FTCP2H_QkPKJNNPyXK-4-30" edge="1">
          <mxGeometry relative="1" as="geometry">
            <mxPoint x="-1045" y="-1150.5" as="targetPoint" />
            <mxPoint x="-892" y="-1013.5" as="sourcePoint" />
            <Array as="points">
              <mxPoint x="-892" y="-1133.5" />
            </Array>
          </mxGeometry>
        </mxCell>
        <mxCell id="bbQqTJrQ85McDsHy6vod-9" style="edgeStyle=none;curved=1;rounded=0;orthogonalLoop=1;jettySize=auto;html=1;fontSize=12;startSize=8;endSize=8;exitX=0.005;exitY=0.769;exitDx=0;exitDy=0;exitPerimeter=0;" parent="1" source="FTCP2H_QkPKJNNPyXK-4-43" target="FTCP2H_QkPKJNNPyXK-4-14" edge="1">
          <mxGeometry relative="1" as="geometry">
            <mxPoint x="-918" y="-949.5" as="sourcePoint" />
            <mxPoint x="-1079" y="-955.5" as="targetPoint" />
          </mxGeometry>
        </mxCell>
        <mxCell id="bbQqTJrQ85McDsHy6vod-10" style="edgeStyle=none;curved=0;rounded=0;orthogonalLoop=1;jettySize=auto;html=1;fontSize=12;startSize=8;endSize=8;" parent="1" source="FTCP2H_QkPKJNNPyXK-4-43" edge="1">
          <mxGeometry relative="1" as="geometry">
            <mxPoint x="-1081" y="-804.5" as="targetPoint" />
            <mxPoint x="-895" y="-933.5" as="sourcePoint" />
            <Array as="points">
              <mxPoint x="-881" y="-804.5" />
            </Array>
          </mxGeometry>
        </mxCell>
        <mxCell id="FTCP2H_QkPKJNNPyXK-4-43" value="" style="sketch=0;outlineConnect=0;fontColor=#232F3E;gradientColor=none;fillColor=#E7157B;strokeColor=none;dashed=0;verticalLabelPosition=bottom;verticalAlign=top;align=center;html=1;fontSize=12;fontStyle=0;aspect=fixed;pointerEvents=1;shape=mxgraph.aws4.mq_broker;" parent="1" vertex="1">
          <mxGeometry x="-920.3699999999999" y="-1008.5" width="78" height="69" as="geometry" />
        </mxCell>
        <mxCell id="FTCP2H_QkPKJNNPyXK-4-44" value="Amazon S3" style="sketch=0;outlineConnect=0;fontColor=#FF8000;gradientColor=none;strokeColor=#ffffff;fillColor=#FF8000;dashed=0;verticalLabelPosition=middle;verticalAlign=bottom;align=center;html=1;whiteSpace=wrap;fontSize=12;fontStyle=1;spacing=3;shape=mxgraph.aws4.productIcon;prIcon=mxgraph.aws4.s3;" parent="1" vertex="1">
          <mxGeometry x="-618" y="-1404" width="80" height="100" as="geometry" />
        </mxCell>
        <mxCell id="bMrcSnrjAP0GC5gMyjKL-9" style="edgeStyle=none;curved=1;rounded=0;orthogonalLoop=1;jettySize=auto;html=1;fontSize=12;startSize=8;endSize=8;entryX=0.5;entryY=1;entryDx=0;entryDy=0;entryPerimeter=0;" parent="1" source="FTCP2H_QkPKJNNPyXK-4-47" target="FTCP2H_QkPKJNNPyXK-4-48" edge="1">
          <mxGeometry relative="1" as="geometry">
            <mxPoint x="-1799" y="-925.5" as="targetPoint" />
          </mxGeometry>
        </mxCell>
        <mxCell id="bMrcSnrjAP0GC5gMyjKL-16" style="edgeStyle=none;curved=1;rounded=0;orthogonalLoop=1;jettySize=auto;html=1;fontSize=12;startSize=8;endSize=8;dashed=1;" parent="1" target="bMrcSnrjAP0GC5gMyjKL-20" edge="1">
          <mxGeometry relative="1" as="geometry">
            <mxPoint x="-1455" y="-920.7679283647456" as="targetPoint" />
            <mxPoint x="-1589" y="-936.5" as="sourcePoint" />
          </mxGeometry>
        </mxCell>
        <mxCell id="bIfwMA-cPKqzfyl7_uyt-1" style="edgeStyle=orthogonalEdgeStyle;rounded=0;orthogonalLoop=1;jettySize=auto;html=1;dashed=1;" parent="1" edge="1">
          <mxGeometry relative="1" as="geometry">
            <mxPoint x="-1207" y="-1115.5" as="targetPoint" />
            <mxPoint x="-1601" y="-927.5" as="sourcePoint" />
            <Array as="points">
              <mxPoint x="-1601" y="-945.5" />
              <mxPoint x="-1296" y="-945.5" />
              <mxPoint x="-1296" y="-1115.5" />
            </Array>
          </mxGeometry>
        </mxCell>
        <mxCell id="bIfwMA-cPKqzfyl7_uyt-2" style="edgeStyle=orthogonalEdgeStyle;rounded=0;orthogonalLoop=1;jettySize=auto;html=1;dashed=1;" parent="1" source="FTCP2H_QkPKJNNPyXK-4-47" edge="1">
          <mxGeometry relative="1" as="geometry">
            <mxPoint x="-1205" y="-778.5" as="targetPoint" />
            <mxPoint x="-1643" y="-956.5" as="sourcePoint" />
            <Array as="points">
              <mxPoint x="-1297" y="-922.5" />
              <mxPoint x="-1297" y="-778.5" />
            </Array>
          </mxGeometry>
        </mxCell>
        <mxCell id="bIfwMA-cPKqzfyl7_uyt-3" style="edgeStyle=orthogonalEdgeStyle;rounded=0;orthogonalLoop=1;jettySize=auto;html=1;dashed=1;" parent="1" target="FTCP2H_QkPKJNNPyXK-4-55" edge="1">
          <mxGeometry relative="1" as="geometry">
            <mxPoint x="-871.25" y="-603.5" as="targetPoint" />
            <mxPoint x="-1591.75" y="-915.5" as="sourcePoint" />
            <Array as="points">
              <mxPoint x="-1310" y="-915.5" />
              <mxPoint x="-1310" y="-578.5" />
            </Array>
          </mxGeometry>
        </mxCell>
        <mxCell id="FTCP2H_QkPKJNNPyXK-4-47" value="Amazon ECS" style="sketch=0;outlineConnect=0;fontColor=#FF8000;gradientColor=none;strokeColor=#ffffff;fillColor=#FF8000;dashed=0;verticalLabelPosition=middle;verticalAlign=middle;align=right;html=1;whiteSpace=wrap;fontSize=12;fontStyle=1;spacing=3;shape=mxgraph.aws4.productIcon;prIcon=mxgraph.aws4.ecs;labelPosition=left;" parent="1" vertex="1">
          <mxGeometry x="-1667.25" y="-956.5" width="76.25" height="76" as="geometry" />
        </mxCell>
        <mxCell id="FTCP2H_QkPKJNNPyXK-4-48" value="Amazon ECR" style="outlineConnect=0;dashed=0;verticalLabelPosition=middle;verticalAlign=middle;align=left;html=1;shape=mxgraph.aws3.ecr;fillColor=#F58534;gradientColor=none;fontColor=#FF8000;fontStyle=1;fontSize=14;labelPosition=right;" parent="1" vertex="1">
          <mxGeometry x="-1664.5" y="-1225.5" width="69" height="72" as="geometry" />
        </mxCell>
        <mxCell id="bbQqTJrQ85McDsHy6vod-13" style="edgeStyle=none;curved=1;rounded=0;orthogonalLoop=1;jettySize=auto;html=1;exitX=1;exitY=0.5;exitDx=0;exitDy=0;entryX=0;entryY=0.5;entryDx=0;entryDy=0;fontSize=12;startSize=8;endSize=8;" parent="1" source="FTCP2H_QkPKJNNPyXK-4-49" target="FTCP2H_QkPKJNNPyXK-4-40" edge="1">
          <mxGeometry relative="1" as="geometry" />
        </mxCell>
        <mxCell id="bbQqTJrQ85McDsHy6vod-19" style="edgeStyle=none;curved=1;rounded=0;orthogonalLoop=1;jettySize=auto;html=1;fontSize=12;startSize=8;endSize=8;" parent="1" target="FTCP2H_QkPKJNNPyXK-4-58" edge="1">
          <mxGeometry relative="1" as="geometry">
            <mxPoint x="-835" y="-523.5" as="sourcePoint" />
            <mxPoint x="-918" y="-351.5" as="targetPoint" />
          </mxGeometry>
        </mxCell>
        <mxCell id="FTCP2H_QkPKJNNPyXK-4-49" value="Auto Scaling group" style="points=[[0,0],[0.25,0],[0.5,0],[0.75,0],[1,0],[1,0.25],[1,0.5],[1,0.75],[1,1],[0.75,1],[0.5,1],[0.25,1],[0,1],[0,0.75],[0,0.5],[0,0.25]];outlineConnect=0;gradientColor=none;html=1;whiteSpace=wrap;fontSize=10;fontStyle=0;container=1;pointerEvents=0;collapsible=0;recursiveResize=0;shape=mxgraph.aws4.groupCenter;grIcon=mxgraph.aws4.group_auto_scaling_group;grStroke=1;strokeColor=#D86613;fillColor=none;verticalAlign=top;align=center;fontColor=#D86613;dashed=1;spacingTop=25;" parent="1" vertex="1">
          <mxGeometry x="-911.3699999999999" y="-677.5" width="153" height="152" as="geometry" />
        </mxCell>
        <mxCell id="FTCP2H_QkPKJNNPyXK-4-53" value="EC2 Automatic Center Investigation&amp;nbsp;" style="points=[[0,0],[0.25,0],[0.5,0],[0.75,0],[1,0],[1,0.25],[1,0.5],[1,0.75],[1,1],[0.75,1],[0.5,1],[0.25,1],[0,1],[0,0.75],[0,0.5],[0,0.25]];outlineConnect=0;gradientColor=none;html=1;whiteSpace=wrap;fontSize=9;fontStyle=1;container=1;pointerEvents=0;collapsible=0;recursiveResize=0;shape=mxgraph.aws4.group;grIcon=mxgraph.aws4.group_ec2_instance_contents;strokeColor=#D86613;fillColor=none;verticalAlign=top;align=left;spacingLeft=30;fontColor=#D86613;dashed=0;" parent="1" vertex="1">
          <mxGeometry x="-898.5" y="-625.5" width="127.25" height="89" as="geometry" />
        </mxCell>
        <mxCell id="FTCP2H_QkPKJNNPyXK-4-54" value="" style="sketch=0;points=[[0,0,0],[0.25,0,0],[0.5,0,0],[0.75,0,0],[1,0,0],[0,1,0],[0.25,1,0],[0.5,1,0],[0.75,1,0],[1,1,0],[0,0.25,0],[0,0.5,0],[0,0.75,0],[1,0.25,0],[1,0.5,0],[1,0.75,0]];outlineConnect=0;fontColor=#232F3E;fillColor=#ED7100;strokeColor=#ffffff;dashed=0;verticalLabelPosition=bottom;verticalAlign=top;align=center;html=1;fontSize=12;fontStyle=0;shape=mxgraph.aws4.resourceIcon;resIcon=mxgraph.aws4.ec2;direction=south;" parent="FTCP2H_QkPKJNNPyXK-4-53" vertex="1">
          <mxGeometry x="79.25" y="33" width="34" height="24" as="geometry" />
        </mxCell>
        <mxCell id="FTCP2H_QkPKJNNPyXK-4-55" value="Container" style="sketch=0;outlineConnect=0;fontColor=#FF8000;gradientColor=none;fillColor=#FF8000;strokeColor=none;dashed=0;verticalLabelPosition=bottom;verticalAlign=top;align=center;html=1;fontSize=10;fontStyle=1;pointerEvents=1;shape=mxgraph.aws4.container_2;aspect=fixed;" parent="FTCP2H_QkPKJNNPyXK-4-53" vertex="1">
          <mxGeometry x="27.25" y="33" width="35.61" height="23" as="geometry" />
        </mxCell>
        <mxCell id="FTCP2H_QkPKJNNPyXK-4-56" style="edgeStyle=none;curved=1;rounded=0;orthogonalLoop=1;jettySize=auto;html=1;exitX=0;exitY=0;exitDx=0;exitDy=0;fontSize=12;startSize=8;endSize=8;" parent="1" edge="1">
          <mxGeometry relative="1" as="geometry">
            <mxPoint x="-870" y="-1195.5" as="sourcePoint" />
            <mxPoint x="-870" y="-1195.5" as="targetPoint" />
          </mxGeometry>
        </mxCell>
        <mxCell id="FTCP2H_QkPKJNNPyXK-4-57" style="edgeStyle=none;curved=1;rounded=0;orthogonalLoop=1;jettySize=auto;html=1;exitX=1;exitY=1;exitDx=0;exitDy=0;fontSize=12;startSize=8;endSize=8;" parent="1" edge="1">
          <mxGeometry relative="1" as="geometry">
            <mxPoint x="-670.5" y="-996" as="sourcePoint" />
            <mxPoint x="-670.5" y="-996" as="targetPoint" />
          </mxGeometry>
        </mxCell>
        <mxCell id="bbQqTJrQ85McDsHy6vod-17" style="edgeStyle=none;curved=1;rounded=0;orthogonalLoop=1;jettySize=auto;html=1;exitX=0.75;exitY=0;exitDx=0;exitDy=0;fontSize=12;startSize=8;endSize=8;" parent="1" source="FTCP2H_QkPKJNNPyXK-4-58" edge="1">
          <mxGeometry relative="1" as="geometry">
            <mxPoint x="-801" y="-530.5" as="targetPoint" />
            <Array as="points">
              <mxPoint x="-801" y="-441.5" />
            </Array>
          </mxGeometry>
        </mxCell>
        <mxCell id="bbQqTJrQ85McDsHy6vod-22" style="edgeStyle=none;curved=1;rounded=0;orthogonalLoop=1;jettySize=auto;html=1;exitX=0;exitY=0.75;exitDx=0;exitDy=0;entryX=1;entryY=0.75;entryDx=0;entryDy=0;fontSize=12;startSize=8;endSize=8;" parent="1" source="FTCP2H_QkPKJNNPyXK-4-58" target="FTCP2H_QkPKJNNPyXK-4-64" edge="1">
          <mxGeometry relative="1" as="geometry" />
        </mxCell>
        <mxCell id="FTCP2H_QkPKJNNPyXK-4-58" value="EC2 Cyber Security Operation Core&amp;nbsp;" style="points=[[0,0],[0.25,0],[0.5,0],[0.75,0],[1,0],[1,0.25],[1,0.5],[1,0.75],[1,1],[0.75,1],[0.5,1],[0.25,1],[0,1],[0,0.75],[0,0.5],[0,0.25]];outlineConnect=0;gradientColor=none;html=1;whiteSpace=wrap;fontSize=9;fontStyle=1;container=1;pointerEvents=0;collapsible=0;recursiveResize=0;shape=mxgraph.aws4.group;grIcon=mxgraph.aws4.group_ec2_instance_contents;strokeColor=#D86613;fillColor=none;verticalAlign=top;align=left;spacingLeft=30;fontColor=#D86613;dashed=0;" parent="1" vertex="1">
          <mxGeometry x="-902.6199999999999" y="-358.5" width="135.62" height="89" as="geometry" />
        </mxCell>
        <mxCell id="FTCP2H_QkPKJNNPyXK-4-59" value="" style="sketch=0;points=[[0,0,0],[0.25,0,0],[0.5,0,0],[0.75,0,0],[1,0,0],[0,1,0],[0.25,1,0],[0.5,1,0],[0.75,1,0],[1,1,0],[0,0.25,0],[0,0.5,0],[0,0.75,0],[1,0.25,0],[1,0.5,0],[1,0.75,0]];outlineConnect=0;fontColor=#232F3E;fillColor=#ED7100;strokeColor=#ffffff;dashed=0;verticalLabelPosition=bottom;verticalAlign=top;align=center;html=1;fontSize=12;fontStyle=0;shape=mxgraph.aws4.resourceIcon;resIcon=mxgraph.aws4.ec2;direction=south;" parent="FTCP2H_QkPKJNNPyXK-4-58" vertex="1">
          <mxGeometry x="79.25" y="33" width="34" height="24" as="geometry" />
        </mxCell>
        <mxCell id="bIfwMA-cPKqzfyl7_uyt-12" value="Container" style="sketch=0;outlineConnect=0;fontColor=#FF8000;gradientColor=none;fillColor=#ED7100;strokeColor=none;dashed=0;verticalLabelPosition=bottom;verticalAlign=top;align=center;html=1;fontSize=10;fontStyle=1;pointerEvents=1;shape=mxgraph.aws4.container_2;aspect=fixed;" parent="FTCP2H_QkPKJNNPyXK-4-58" vertex="1">
          <mxGeometry x="24.639999999999986" y="34" width="35.61" height="23" as="geometry" />
        </mxCell>
        <mxCell id="bbQqTJrQ85McDsHy6vod-5" style="edgeStyle=none;curved=1;rounded=0;orthogonalLoop=1;jettySize=auto;html=1;exitX=0.5;exitY=1;exitDx=0;exitDy=0;fontSize=12;startSize=8;endSize=8;" parent="1" source="FTCP2H_QkPKJNNPyXK-4-61" target="FTCP2H_QkPKJNNPyXK-4-43" edge="1">
          <mxGeometry relative="1" as="geometry" />
        </mxCell>
        <mxCell id="FTCP2H_QkPKJNNPyXK-4-61" value="EC2 Network Mirror" style="points=[[0,0],[0.25,0],[0.5,0],[0.75,0],[1,0],[1,0.25],[1,0.5],[1,0.75],[1,1],[0.75,1],[0.5,1],[0.25,1],[0,1],[0,0.75],[0,0.5],[0,0.25]];outlineConnect=0;gradientColor=none;html=1;whiteSpace=wrap;fontSize=9;fontStyle=1;container=1;pointerEvents=0;collapsible=0;recursiveResize=0;shape=mxgraph.aws4.group;grIcon=mxgraph.aws4.group_ec2_instance_contents;strokeColor=#D86613;fillColor=none;verticalAlign=top;align=left;spacingLeft=30;fontColor=#D86613;dashed=0;" parent="1" vertex="1">
          <mxGeometry x="-945" y="-1404" width="127.25" height="89" as="geometry" />
        </mxCell>
        <mxCell id="FTCP2H_QkPKJNNPyXK-4-62" value="" style="sketch=0;points=[[0,0,0],[0.25,0,0],[0.5,0,0],[0.75,0,0],[1,0,0],[0,1,0],[0.25,1,0],[0.5,1,0],[0.75,1,0],[1,1,0],[0,0.25,0],[0,0.5,0],[0,0.75,0],[1,0.25,0],[1,0.5,0],[1,0.75,0]];outlineConnect=0;fontColor=#232F3E;fillColor=#ED7100;strokeColor=#ffffff;dashed=0;verticalLabelPosition=bottom;verticalAlign=top;align=center;html=1;fontSize=12;fontStyle=0;shape=mxgraph.aws4.resourceIcon;resIcon=mxgraph.aws4.ec2;direction=south;" parent="FTCP2H_QkPKJNNPyXK-4-61" vertex="1">
          <mxGeometry x="79.25" y="33" width="34" height="24" as="geometry" />
        </mxCell>
        <mxCell id="FTCP2H_QkPKJNNPyXK-4-63" value="Container" style="sketch=0;outlineConnect=0;fontColor=#FF8000;gradientColor=none;fillColor=#ED7100;strokeColor=none;dashed=0;verticalLabelPosition=bottom;verticalAlign=top;align=center;html=1;fontSize=10;fontStyle=1;pointerEvents=1;shape=mxgraph.aws4.container_2;aspect=fixed;" parent="FTCP2H_QkPKJNNPyXK-4-61" vertex="1">
          <mxGeometry x="27.25" y="33" width="35.61" height="23" as="geometry" />
        </mxCell>
        <mxCell id="bbQqTJrQ85McDsHy6vod-21" style="edgeStyle=none;curved=1;rounded=0;orthogonalLoop=1;jettySize=auto;html=1;exitX=1;exitY=0.25;exitDx=0;exitDy=0;entryX=0;entryY=0.25;entryDx=0;entryDy=0;fontSize=12;startSize=8;endSize=8;" parent="1" source="FTCP2H_QkPKJNNPyXK-4-64" target="FTCP2H_QkPKJNNPyXK-4-58" edge="1">
          <mxGeometry relative="1" as="geometry" />
        </mxCell>
        <mxCell id="FTCP2H_QkPKJNNPyXK-4-64" value="EC2 Cyber Security Operation Portal&amp;nbsp;" style="points=[[0,0],[0.25,0],[0.5,0],[0.75,0],[1,0],[1,0.25],[1,0.5],[1,0.75],[1,1],[0.75,1],[0.5,1],[0.25,1],[0,1],[0,0.75],[0,0.5],[0,0.25]];outlineConnect=0;gradientColor=none;html=1;whiteSpace=wrap;fontSize=9;fontStyle=1;container=1;pointerEvents=0;collapsible=0;recursiveResize=0;shape=mxgraph.aws4.group;grIcon=mxgraph.aws4.group_ec2_instance_contents;strokeColor=#D86613;fillColor=none;verticalAlign=top;align=left;spacingLeft=30;fontColor=#D86613;dashed=0;" parent="1" vertex="1">
          <mxGeometry x="-1270" y="-358.5" width="127.25" height="89" as="geometry" />
        </mxCell>
        <mxCell id="FTCP2H_QkPKJNNPyXK-4-65" value="" style="sketch=0;points=[[0,0,0],[0.25,0,0],[0.5,0,0],[0.75,0,0],[1,0,0],[0,1,0],[0.25,1,0],[0.5,1,0],[0.75,1,0],[1,1,0],[0,0.25,0],[0,0.5,0],[0,0.75,0],[1,0.25,0],[1,0.5,0],[1,0.75,0]];outlineConnect=0;fontColor=#232F3E;fillColor=#ED7100;strokeColor=#ffffff;dashed=0;verticalLabelPosition=bottom;verticalAlign=top;align=center;html=1;fontSize=12;fontStyle=0;shape=mxgraph.aws4.resourceIcon;resIcon=mxgraph.aws4.ec2;direction=south;" parent="FTCP2H_QkPKJNNPyXK-4-64" vertex="1">
          <mxGeometry x="79.25" y="33" width="34" height="24" as="geometry" />
        </mxCell>
        <mxCell id="bIfwMA-cPKqzfyl7_uyt-11" value="Container" style="sketch=0;outlineConnect=0;fontColor=#FF8000;gradientColor=none;fillColor=#ED7100;strokeColor=none;dashed=0;verticalLabelPosition=bottom;verticalAlign=top;align=center;html=1;fontSize=10;fontStyle=1;pointerEvents=1;shape=mxgraph.aws4.container_2;aspect=fixed;" parent="FTCP2H_QkPKJNNPyXK-4-64" vertex="1">
          <mxGeometry x="34.39" y="34" width="35.61" height="23" as="geometry" />
        </mxCell>
        <mxCell id="bbQqTJrQ85McDsHy6vod-1" style="edgeStyle=none;curved=1;rounded=0;orthogonalLoop=1;jettySize=auto;html=1;fontSize=12;startSize=8;endSize=8;" parent="1" source="FTCP2H_QkPKJNNPyXK-4-67" edge="1">
          <mxGeometry relative="1" as="geometry">
            <mxPoint x="-1456" y="-1359.5" as="targetPoint" />
          </mxGeometry>
        </mxCell>
        <mxCell id="FTCP2H_QkPKJNNPyXK-4-67" value="" style="sketch=0;outlineConnect=0;fontColor=#232F3E;gradientColor=none;fillColor=#232F3D;strokeColor=none;dashed=0;verticalLabelPosition=bottom;verticalAlign=top;align=center;html=1;fontSize=12;fontStyle=0;aspect=fixed;pointerEvents=1;shape=mxgraph.aws4.internet_alt22;" parent="1" vertex="1">
          <mxGeometry x="-2199" y="-1398.5" width="78" height="78" as="geometry" />
        </mxCell>
        <mxCell id="bbQqTJrQ85McDsHy6vod-2" style="edgeStyle=none;curved=1;rounded=0;orthogonalLoop=1;jettySize=auto;html=1;fontSize=12;startSize=8;endSize=8;" parent="1" target="FTCP2H_QkPKJNNPyXK-4-61" edge="1">
          <mxGeometry relative="1" as="geometry">
            <mxPoint x="-1380" y="-1359.5" as="sourcePoint" />
          </mxGeometry>
        </mxCell>
        <mxCell id="VFk-ePLD4UC4l5shMS_P-3" value="Gteway" style="sketch=0;aspect=fixed;pointerEvents=1;shadow=0;dashed=0;html=1;strokeColor=none;labelPosition=center;verticalLabelPosition=bottom;verticalAlign=top;align=center;fillColor=#FF8000;shape=mxgraph.mscae.enterprise.gateway" parent="1" vertex="1">
          <mxGeometry x="-1440" y="-1384.5" width="50" height="50" as="geometry" />
        </mxCell>
        <mxCell id="bbQqTJrQ85McDsHy6vod-4" style="edgeStyle=none;curved=1;rounded=0;orthogonalLoop=1;jettySize=auto;html=1;exitX=1;exitY=0.5;exitDx=0;exitDy=0;entryX=0;entryY=0.445;entryDx=0;entryDy=0;entryPerimeter=0;fontSize=12;startSize=8;endSize=8;" parent="1" source="FTCP2H_QkPKJNNPyXK-4-61" target="FTCP2H_QkPKJNNPyXK-4-44" edge="1">
          <mxGeometry relative="1" as="geometry" />
        </mxCell>
        <mxCell id="bbQqTJrQ85McDsHy6vod-11" style="edgeStyle=none;curved=0;rounded=0;orthogonalLoop=1;jettySize=auto;html=1;exitX=1;exitY=0.25;exitDx=0;exitDy=0;entryX=0.338;entryY=1.075;entryDx=0;entryDy=0;entryPerimeter=0;fontSize=12;startSize=8;endSize=8;" parent="1" source="FTCP2H_QkPKJNNPyXK-4-26" target="FTCP2H_QkPKJNNPyXK-4-43" edge="1">
          <mxGeometry relative="1" as="geometry">
            <Array as="points">
              <mxPoint x="-894" y="-823.5" />
            </Array>
          </mxGeometry>
        </mxCell>
        <mxCell id="bbQqTJrQ85McDsHy6vod-12" style="edgeStyle=none;curved=0;rounded=0;orthogonalLoop=1;jettySize=auto;html=1;entryX=0.859;entryY=-0.033;entryDx=0;entryDy=0;entryPerimeter=0;fontSize=12;startSize=8;endSize=8;" parent="1" source="FTCP2H_QkPKJNNPyXK-4-43" target="FTCP2H_QkPKJNNPyXK-4-49" edge="1">
          <mxGeometry relative="1" as="geometry">
            <Array as="points">
              <mxPoint x="-780" y="-973.5" />
            </Array>
          </mxGeometry>
        </mxCell>
        <mxCell id="bIfwMA-cPKqzfyl7_uyt-8" style="edgeStyle=orthogonalEdgeStyle;rounded=0;orthogonalLoop=1;jettySize=auto;html=1;entryX=0;entryY=0.75;entryDx=0;entryDy=0;" parent="1" source="bMrcSnrjAP0GC5gMyjKL-11" target="FTCP2H_QkPKJNNPyXK-4-64" edge="1">
          <mxGeometry relative="1" as="geometry">
            <mxPoint x="-1595" y="-86" as="targetPoint" />
            <mxPoint x="-1872" y="-264" as="sourcePoint" />
            <Array as="points">
              <mxPoint x="-2167" y="-292" />
            </Array>
          </mxGeometry>
        </mxCell>
        <mxCell id="bMrcSnrjAP0GC5gMyjKL-1" value="Developer" style="sketch=0;pointerEvents=1;shadow=0;dashed=0;html=1;strokeColor=none;fillColor=#505050;labelPosition=center;verticalLabelPosition=bottom;verticalAlign=top;outlineConnect=0;align=center;shape=mxgraph.office.users.administrator;" parent="1" vertex="1">
          <mxGeometry x="-2241" y="-654" width="58" height="56" as="geometry" />
        </mxCell>
        <mxCell id="bMrcSnrjAP0GC5gMyjKL-8" style="edgeStyle=none;curved=1;rounded=0;orthogonalLoop=1;jettySize=auto;html=1;fontSize=12;startSize=8;endSize=8;" parent="1" source="bMrcSnrjAP0GC5gMyjKL-4" edge="1">
          <mxGeometry relative="1" as="geometry">
            <mxPoint x="-1630" y="-878.5" as="targetPoint" />
          </mxGeometry>
        </mxCell>
        <mxCell id="bMrcSnrjAP0GC5gMyjKL-4" value="Pipeline" style="sketch=0;outlineConnect=0;fontColor=#232F3E;gradientColor=none;fillColor=#7AA116;strokeColor=none;dashed=0;verticalLabelPosition=middle;verticalAlign=middle;align=left;html=1;fontSize=12;fontStyle=0;aspect=fixed;pointerEvents=1;shape=mxgraph.aws4.iot_analytics_pipeline;labelPosition=right;" parent="1" vertex="1">
          <mxGeometry x="-1669" y="-810.5" width="78" height="42" as="geometry" />
        </mxCell>
        <mxCell id="bMrcSnrjAP0GC5gMyjKL-11" value="Analysts&amp;nbsp;" style="outlineConnect=0;dashed=0;verticalLabelPosition=bottom;verticalAlign=top;align=center;html=1;shape=mxgraph.aws3.users;fillColor=#D2D3D3;gradientColor=none;" parent="1" vertex="1">
          <mxGeometry x="-2245" y="-326" width="66" height="63" as="geometry" />
        </mxCell>
        <mxCell id="bIfwMA-cPKqzfyl7_uyt-4" style="edgeStyle=orthogonalEdgeStyle;rounded=0;orthogonalLoop=1;jettySize=auto;html=1;dashed=1;" parent="1" source="FTCP2H_QkPKJNNPyXK-4-47" edge="1">
          <mxGeometry relative="1" as="geometry">
            <mxPoint x="-1245" y="-317.5" as="targetPoint" />
            <mxPoint x="-1581.75" y="-905.5" as="sourcePoint" />
            <Array as="points">
              <mxPoint x="-1332" y="-905.5" />
              <mxPoint x="-1332" y="-317.5" />
            </Array>
          </mxGeometry>
        </mxCell>
        <mxCell id="bIfwMA-cPKqzfyl7_uyt-5" style="edgeStyle=orthogonalEdgeStyle;rounded=0;orthogonalLoop=1;jettySize=auto;html=1;dashed=1;" parent="1" source="FTCP2H_QkPKJNNPyXK-4-47" edge="1">
          <mxGeometry relative="1" as="geometry">
            <mxPoint x="-857.9333333333329" y="-302.56792966972966" as="targetPoint" />
            <mxPoint x="-1571.75" y="-895.5" as="sourcePoint" />
            <Array as="points">
              <mxPoint x="-1357" y="-895.5" />
              <mxPoint x="-1357" y="-222.5" />
              <mxPoint x="-858" y="-222.5" />
            </Array>
          </mxGeometry>
        </mxCell>
        <mxCell id="bIfwMA-cPKqzfyl7_uyt-7" style="edgeStyle=orthogonalEdgeStyle;rounded=0;orthogonalLoop=1;jettySize=auto;html=1;dashed=1;" parent="1" source="FTCP2H_QkPKJNNPyXK-4-47" edge="1">
          <mxGeometry relative="1" as="geometry">
            <mxPoint x="-908" y="-1323.5" as="targetPoint" />
            <mxPoint x="-1610" y="-1097.5" as="sourcePoint" />
            <Array as="points">
              <mxPoint x="-1598" y="-1037.5" />
              <mxPoint x="-1342" y="-1037.5" />
              <mxPoint x="-1342" y="-1253.5" />
              <mxPoint x="-908" y="-1253.5" />
            </Array>
          </mxGeometry>
        </mxCell>
        <mxCell id="PNqLKcJpuoWZzPqMbl4y-4" style="edgeStyle=orthogonalEdgeStyle;rounded=0;orthogonalLoop=1;jettySize=auto;html=1;" parent="1" edge="1">
          <mxGeometry relative="1" as="geometry">
            <mxPoint x="-1667.6666666666665" y="-610.5" as="targetPoint" />
            <mxPoint x="-2173" y="-610" as="sourcePoint" />
            <Array as="points">
              <mxPoint x="-1920" y="-610" />
            </Array>
          </mxGeometry>
        </mxCell>
      </root>
    </mxGraphModel>
  </diagram>
  <diagram id="kXFMWBMpy0LjPxlN8SvE" name="Sequence Diagram- Detection Sensor">
    <mxGraphModel dx="1379" dy="944" grid="0" gridSize="10" guides="1" tooltips="1" connect="1" arrows="1" fold="1" page="0" pageScale="1" pageWidth="2336" pageHeight="1654" math="0" shadow="0">
      <root>
        <mxCell id="0" />
        <mxCell id="1" parent="0" />
        <mxCell id="7DaaI6aZvAMOTexH9DMX-1" value="Network Mirror" style="shape=umlLifeline;perimeter=lifelinePerimeter;whiteSpace=wrap;html=1;container=1;dropTarget=0;collapsible=0;recursiveResize=0;outlineConnect=0;portConstraint=eastwest;newEdgeStyle={&quot;curved&quot;:0,&quot;rounded&quot;:0};" vertex="1" parent="1">
          <mxGeometry x="-252" y="-14" width="100" height="328" as="geometry" />
        </mxCell>
        <mxCell id="7DaaI6aZvAMOTexH9DMX-15" value="" style="html=1;points=[[0,0,0,0,5],[0,1,0,0,-5],[1,0,0,0,5],[1,1,0,0,-5]];perimeter=orthogonalPerimeter;outlineConnect=0;targetShapes=umlLifeline;portConstraint=eastwest;newEdgeStyle={&quot;curved&quot;:0,&quot;rounded&quot;:0};" vertex="1" parent="7DaaI6aZvAMOTexH9DMX-1">
          <mxGeometry x="45" y="61" width="10" height="245" as="geometry" />
        </mxCell>
        <mxCell id="7DaaI6aZvAMOTexH9DMX-17" value="generate file" style="html=1;align=left;spacingLeft=2;endArrow=block;rounded=0;edgeStyle=orthogonalEdgeStyle;curved=0;rounded=0;fontSize=12;startSize=8;endSize=8;" edge="1" target="7DaaI6aZvAMOTexH9DMX-15" parent="7DaaI6aZvAMOTexH9DMX-1" source="7DaaI6aZvAMOTexH9DMX-15">
          <mxGeometry x="-0.899" y="12" relative="1" as="geometry">
            <mxPoint x="70" y="145" as="sourcePoint" />
            <Array as="points">
              <mxPoint x="143" y="167" />
              <mxPoint x="143" y="192" />
            </Array>
            <mxPoint x="75" y="175" as="targetPoint" />
            <mxPoint as="offset" />
          </mxGeometry>
        </mxCell>
        <mxCell id="7DaaI6aZvAMOTexH9DMX-2" value="Gateway" style="shape=umlLifeline;perimeter=lifelinePerimeter;whiteSpace=wrap;html=1;container=1;dropTarget=0;collapsible=0;recursiveResize=0;outlineConnect=0;portConstraint=eastwest;newEdgeStyle={&quot;curved&quot;:0,&quot;rounded&quot;:0};" vertex="1" parent="1">
          <mxGeometry x="-113" y="-14" width="100" height="187" as="geometry" />
        </mxCell>
        <mxCell id="7DaaI6aZvAMOTexH9DMX-9" value="" style="html=1;points=[[0,0,0,0,5],[0,1,0,0,-5],[1,0,0,0,5],[1,1,0,0,-5]];perimeter=orthogonalPerimeter;outlineConnect=0;targetShapes=umlLifeline;portConstraint=eastwest;newEdgeStyle={&quot;curved&quot;:0,&quot;rounded&quot;:0};" vertex="1" parent="7DaaI6aZvAMOTexH9DMX-2">
          <mxGeometry x="44" y="89" width="10" height="42" as="geometry" />
        </mxCell>
        <mxCell id="7DaaI6aZvAMOTexH9DMX-3" value="Cyber File Storage" style="shape=umlLifeline;perimeter=lifelinePerimeter;whiteSpace=wrap;html=1;container=1;dropTarget=0;collapsible=0;recursiveResize=0;outlineConnect=0;portConstraint=eastwest;newEdgeStyle={&quot;curved&quot;:0,&quot;rounded&quot;:0};" vertex="1" parent="1">
          <mxGeometry x="16" y="-14" width="110" height="267" as="geometry" />
        </mxCell>
        <mxCell id="7DaaI6aZvAMOTexH9DMX-19" value="" style="html=1;points=[[0,0,0,0,5],[0,1,0,0,-5],[1,0,0,0,5],[1,1,0,0,-5]];perimeter=orthogonalPerimeter;outlineConnect=0;targetShapes=umlLifeline;portConstraint=eastwest;newEdgeStyle={&quot;curved&quot;:0,&quot;rounded&quot;:0};" vertex="1" parent="7DaaI6aZvAMOTexH9DMX-3">
          <mxGeometry x="50" y="213" width="10" height="43" as="geometry" />
        </mxCell>
        <mxCell id="7DaaI6aZvAMOTexH9DMX-4" value="Detection Sensors" style="shape=umlLifeline;perimeter=lifelinePerimeter;whiteSpace=wrap;html=1;container=1;dropTarget=0;collapsible=0;recursiveResize=0;outlineConnect=0;portConstraint=eastwest;newEdgeStyle={&quot;curved&quot;:0,&quot;rounded&quot;:0};" vertex="1" parent="1">
          <mxGeometry x="162" y="-17" width="107" height="522" as="geometry" />
        </mxCell>
        <mxCell id="7DaaI6aZvAMOTexH9DMX-22" value="" style="html=1;points=[[0,0,0,0,5],[0,1,0,0,-5],[1,0,0,0,5],[1,1,0,0,-5]];perimeter=orthogonalPerimeter;outlineConnect=0;targetShapes=umlLifeline;portConstraint=eastwest;newEdgeStyle={&quot;curved&quot;:0,&quot;rounded&quot;:0};" vertex="1" parent="7DaaI6aZvAMOTexH9DMX-4">
          <mxGeometry x="48.5" y="281" width="10" height="225" as="geometry" />
        </mxCell>
        <mxCell id="7DaaI6aZvAMOTexH9DMX-5" value="Cyber File Storage" style="shape=umlLifeline;perimeter=lifelinePerimeter;whiteSpace=wrap;html=1;container=1;dropTarget=0;collapsible=0;recursiveResize=0;outlineConnect=0;portConstraint=eastwest;newEdgeStyle={&quot;curved&quot;:0,&quot;rounded&quot;:0};" vertex="1" parent="1">
          <mxGeometry x="304" y="-20" width="110" height="412" as="geometry" />
        </mxCell>
        <mxCell id="7DaaI6aZvAMOTexH9DMX-28" style="edgeStyle=none;curved=0;rounded=0;orthogonalLoop=1;jettySize=auto;html=1;fontSize=12;startSize=8;endSize=8;endArrow=open;endFill=0;dashed=1;" edge="1" parent="7DaaI6aZvAMOTexH9DMX-5" source="7DaaI6aZvAMOTexH9DMX-25">
          <mxGeometry relative="1" as="geometry">
            <mxPoint x="-85" y="361" as="targetPoint" />
          </mxGeometry>
        </mxCell>
        <mxCell id="7DaaI6aZvAMOTexH9DMX-25" value="" style="html=1;points=[[0,0,0,0,5],[0,1,0,0,-5],[1,0,0,0,5],[1,1,0,0,-5]];perimeter=orthogonalPerimeter;outlineConnect=0;targetShapes=umlLifeline;portConstraint=eastwest;newEdgeStyle={&quot;curved&quot;:0,&quot;rounded&quot;:0};" vertex="1" parent="7DaaI6aZvAMOTexH9DMX-5">
          <mxGeometry x="49" y="321" width="10" height="80" as="geometry" />
        </mxCell>
        <mxCell id="7DaaI6aZvAMOTexH9DMX-6" value="ACI" style="shape=umlLifeline;perimeter=lifelinePerimeter;whiteSpace=wrap;html=1;container=1;dropTarget=0;collapsible=0;recursiveResize=0;outlineConnect=0;portConstraint=eastwest;newEdgeStyle={&quot;curved&quot;:0,&quot;rounded&quot;:0};" vertex="1" parent="1">
          <mxGeometry x="474" y="-20" width="100" height="610" as="geometry" />
        </mxCell>
        <mxCell id="7DaaI6aZvAMOTexH9DMX-24" value="" style="html=1;points=[[0,0,0,0,5],[0,1,0,0,-5],[1,0,0,0,5],[1,1,0,0,-5]];perimeter=orthogonalPerimeter;outlineConnect=0;targetShapes=umlLifeline;portConstraint=eastwest;newEdgeStyle={&quot;curved&quot;:0,&quot;rounded&quot;:0};" vertex="1" parent="7DaaI6aZvAMOTexH9DMX-6">
          <mxGeometry x="45" y="464" width="10" height="126" as="geometry" />
        </mxCell>
        <mxCell id="7DaaI6aZvAMOTexH9DMX-10" value="capture metadata&amp;nbsp;" style="html=1;verticalAlign=bottom;endArrow=block;curved=0;rounded=0;entryX=0;entryY=0;entryDx=0;entryDy=5;fontSize=12;startSize=8;endSize=8;" edge="1" target="7DaaI6aZvAMOTexH9DMX-9" parent="1">
          <mxGeometry relative="1" as="geometry">
            <mxPoint x="-198" y="80" as="sourcePoint" />
          </mxGeometry>
        </mxCell>
        <mxCell id="7DaaI6aZvAMOTexH9DMX-11" value="return" style="html=1;verticalAlign=bottom;endArrow=open;dashed=1;endSize=8;curved=0;rounded=0;exitX=0;exitY=1;exitDx=0;exitDy=-5;fontSize=12;entryX=1.1;entryY=0.266;entryDx=0;entryDy=0;entryPerimeter=0;" edge="1" source="7DaaI6aZvAMOTexH9DMX-9" parent="1" target="7DaaI6aZvAMOTexH9DMX-15">
          <mxGeometry relative="1" as="geometry">
            <mxPoint x="-139" y="150" as="targetPoint" />
          </mxGeometry>
        </mxCell>
        <mxCell id="7DaaI6aZvAMOTexH9DMX-20" value="save file" style="html=1;verticalAlign=bottom;labelBackgroundColor=none;endArrow=open;endFill=0;dashed=1;rounded=0;fontSize=12;startSize=8;endSize=8;curved=1;" edge="1" parent="1" target="7DaaI6aZvAMOTexH9DMX-19">
          <mxGeometry width="160" relative="1" as="geometry">
            <mxPoint x="-195" y="223" as="sourcePoint" />
            <mxPoint x="-35" y="223" as="targetPoint" />
          </mxGeometry>
        </mxCell>
        <mxCell id="7DaaI6aZvAMOTexH9DMX-21" value="send file reference&amp;nbsp;" style="html=1;verticalAlign=bottom;labelBackgroundColor=none;endArrow=open;endFill=0;dashed=1;rounded=0;fontSize=12;startSize=8;endSize=8;curved=1;" edge="1" parent="1" target="7DaaI6aZvAMOTexH9DMX-22">
          <mxGeometry width="160" relative="1" as="geometry">
            <mxPoint x="-196" y="274" as="sourcePoint" />
            <mxPoint x="160" y="274" as="targetPoint" />
          </mxGeometry>
        </mxCell>
        <mxCell id="7DaaI6aZvAMOTexH9DMX-23" value="" style="shape=umlDestroy;whiteSpace=wrap;html=1;strokeWidth=3;targetShapes=umlLifeline;" vertex="1" parent="1">
          <mxGeometry x="-217" y="304" width="30" height="30" as="geometry" />
        </mxCell>
        <mxCell id="7DaaI6aZvAMOTexH9DMX-26" value="get file by reference" style="html=1;verticalAlign=bottom;endArrow=block;curved=0;rounded=0;entryX=0;entryY=0;entryDx=0;entryDy=5;fontSize=12;startSize=8;endSize=8;" edge="1" target="7DaaI6aZvAMOTexH9DMX-25" parent="1" source="7DaaI6aZvAMOTexH9DMX-22">
          <mxGeometry relative="1" as="geometry">
            <mxPoint x="293" y="307.5" as="sourcePoint" />
          </mxGeometry>
        </mxCell>
        <mxCell id="7DaaI6aZvAMOTexH9DMX-31" value="examine file" style="html=1;align=left;spacingLeft=2;endArrow=block;rounded=0;edgeStyle=orthogonalEdgeStyle;curved=0;rounded=0;fontSize=12;startSize=8;endSize=8;" edge="1" parent="1">
          <mxGeometry x="-0.899" y="12" relative="1" as="geometry">
            <mxPoint x="220" y="376" as="sourcePoint" />
            <Array as="points">
              <mxPoint x="319" y="376" />
              <mxPoint x="319" y="401" />
            </Array>
            <mxPoint x="220" y="401" as="targetPoint" />
            <mxPoint as="offset" />
          </mxGeometry>
        </mxCell>
        <mxCell id="7DaaI6aZvAMOTexH9DMX-32" value="send examination result" style="html=1;verticalAlign=bottom;labelBackgroundColor=none;endArrow=open;endFill=0;dashed=1;rounded=0;fontSize=12;startSize=8;endSize=8;curved=1;" edge="1" parent="1" target="7DaaI6aZvAMOTexH9DMX-24">
          <mxGeometry width="160" relative="1" as="geometry">
            <mxPoint x="221" y="463" as="sourcePoint" />
            <mxPoint x="381" y="463" as="targetPoint" />
          </mxGeometry>
        </mxCell>
        <mxCell id="7DaaI6aZvAMOTexH9DMX-33" value="" style="shape=umlDestroy;whiteSpace=wrap;html=1;strokeWidth=3;targetShapes=umlLifeline;" vertex="1" parent="1">
          <mxGeometry x="200.5" y="495" width="30" height="30" as="geometry" />
        </mxCell>
        <mxCell id="7DaaI6aZvAMOTexH9DMX-34" value="save examination details" style="html=1;align=left;spacingLeft=2;endArrow=block;rounded=0;edgeStyle=orthogonalEdgeStyle;curved=0;rounded=0;fontSize=12;startSize=8;endSize=8;" edge="1" parent="1">
          <mxGeometry x="-0.899" y="12" relative="1" as="geometry">
            <mxPoint x="529" y="475" as="sourcePoint" />
            <Array as="points">
              <mxPoint x="683" y="475" />
              <mxPoint x="683" y="500" />
            </Array>
            <mxPoint x="529" y="500" as="targetPoint" />
            <mxPoint as="offset" />
          </mxGeometry>
        </mxCell>
        <mxCell id="7DaaI6aZvAMOTexH9DMX-35" value="Cyber Security Operation" style="shape=umlLifeline;perimeter=lifelinePerimeter;whiteSpace=wrap;html=1;container=1;dropTarget=0;collapsible=0;recursiveResize=0;outlineConnect=0;portConstraint=eastwest;newEdgeStyle={&quot;curved&quot;:0,&quot;rounded&quot;:0};" vertex="1" parent="1">
          <mxGeometry x="688" y="-20" width="154" height="625" as="geometry" />
        </mxCell>
        <mxCell id="7DaaI6aZvAMOTexH9DMX-36" value="" style="html=1;points=[[0,0,0,0,5],[0,1,0,0,-5],[1,0,0,0,5],[1,1,0,0,-5]];perimeter=orthogonalPerimeter;outlineConnect=0;targetShapes=umlLifeline;portConstraint=eastwest;newEdgeStyle={&quot;curved&quot;:0,&quot;rounded&quot;:0};" vertex="1" parent="7DaaI6aZvAMOTexH9DMX-35">
          <mxGeometry x="72" y="529" width="10" height="76" as="geometry" />
        </mxCell>
        <mxCell id="7DaaI6aZvAMOTexH9DMX-37" value="" style="html=1;verticalAlign=bottom;labelBackgroundColor=none;endArrow=open;endFill=0;dashed=1;rounded=0;fontSize=12;startSize=8;endSize=8;curved=1;" edge="1" parent="1" target="7DaaI6aZvAMOTexH9DMX-36">
          <mxGeometry width="160" relative="1" as="geometry">
            <mxPoint x="528" y="554" as="sourcePoint" />
            <mxPoint x="695" y="563" as="targetPoint" />
          </mxGeometry>
        </mxCell>
        <mxCell id="7DaaI6aZvAMOTexH9DMX-38" value="send alert of malware/virus" style="edgeLabel;html=1;align=center;verticalAlign=middle;resizable=0;points=[];fontSize=12;" vertex="1" connectable="0" parent="7DaaI6aZvAMOTexH9DMX-37">
          <mxGeometry x="-0.0275" y="5" relative="1" as="geometry">
            <mxPoint x="-7" y="-5" as="offset" />
          </mxGeometry>
        </mxCell>
      </root>
    </mxGraphModel>
  </diagram>
</mxfile>
